<svg width="659" height="374" viewBox="0 0 659 374" fill="none" xmlns="http://www.w3.org/2000/svg">
<path d="M14.5 41.5L31.5 0.5L68.5 41L30.5 42L14.5 41.5Z" fill="#4B306D"/>
<g filter="url(#filter0_d_929_596)">
<path d="M31 0H659V358C659 360.761 656.761 363 654 363H36C33.2386 363 31 360.761 31 358V0Z" fill="#282729"/>
</g>
<g filter="url(#filter1_d_929_596)">
<path d="M154.5 314H104C101.239 314 99 311.761 99 309V118C99 115.239 101.239 113 104 113H585C587.761 113 590 115.239 590 118V309C590 311.761 587.761 314 585 314H534" stroke="#FF5300" stroke-width="5" stroke-linecap="round"/>
</g>
<g filter="url(#filter2_d_929_596)">
<path d="M133.188 64H130.125H127.062H124H120.938H117.875H114.812V60.9375V57.875H117.875H120.938H124H127.062H130.125H133.188H136.25V60.9375V64H133.188ZM136.25 57.875V54.8125V51.75V48.6875V45.625H139.312H142.375V48.6875V51.75V54.8125V57.875H139.312H136.25ZM136.25 45.625H133.188H130.125H127.062H124H120.938V42.5625V39.5H124H127.062H130.125H133.188H136.25V42.5625V45.625ZM120.938 39.5H117.875H114.812V36.4375V33.375H117.875H120.938V36.4375V39.5ZM139.312 33.375H136.25H133.188H130.125H127.062H124H120.938V30.3125V27.25H124H127.062H130.125H133.188H136.25H139.312H142.375V30.3125V33.375H139.312ZM166.875 64H163.812H160.75H157.688H154.625V60.9375V57.875H157.688H160.75H163.812H166.875H169.938V60.9375V64H166.875ZM169.938 57.875V54.8125V51.75V48.6875V45.625V42.5625V39.5V36.4375V33.375V30.3125V27.25H173H176.062V30.3125V33.375V36.4375V39.5V42.5625V45.625V48.6875V51.75V54.8125V57.875H173H169.938ZM154.625 57.875H151.562H148.5V54.8125V51.75V48.6875V45.625V42.5625V39.5V36.4375V33.375V30.3125V27.25H151.562H154.625V30.3125V33.375V36.4375V39.5V42.5625V45.625V48.6875V51.75V54.8125V57.875ZM200.562 64H197.5H194.438H191.375H188.312H185.25H182.188H179.125V60.9375V57.875V54.8125V51.75V48.6875V45.625V42.5625V39.5V36.4375V33.375V30.3125V27.25H182.188H185.25H188.312H191.375H194.438H197.5H200.562H203.625V30.3125V33.375H206.688H209.75V36.4375V39.5V42.5625H206.688H203.625V39.5V36.4375V33.375H200.562H197.5H194.438H191.375H188.312H185.25V36.4375V39.5V42.5625H188.312H191.375H194.438H197.5H200.562H203.625V45.625V48.6875H206.688H209.75V51.75V54.8125V57.875H206.688H203.625V54.8125V51.75V48.6875H200.562H197.5H194.438H191.375H188.312H185.25V51.75V54.8125V57.875H188.312H191.375H194.438H197.5H200.562H203.625V60.9375V64H200.562ZM240.375 64H237.312H234.25H231.188H228.125H225.062H222H218.938H215.875H212.812V60.9375V57.875V54.8125V51.75V48.6875V45.625V42.5625V39.5V36.4375V33.375V30.3125V27.25H215.875H218.938H222H225.062H228.125H231.188H234.25H237.312H240.375H243.438V30.3125V33.375H240.375H237.312H234.25H231.188H228.125H225.062H222H218.938V36.4375V39.5H222H225.062H228.125V42.5625V45.625H225.062H222H218.938V48.6875V51.75V54.8125V57.875H222H225.062H228.125H231.188H234.25H237.312H240.375H243.438V60.9375V64H240.375ZM264.875 64H261.812H258.75H255.688H252.625H249.562H246.5V60.9375V57.875H249.562H252.625H255.688H258.75H261.812H264.875H267.938V60.9375V64H264.875ZM267.938 57.875V54.8125V51.75V48.6875V45.625H271H274.062V48.6875V51.75V54.8125V57.875H271H267.938ZM267.938 45.625H264.875H261.812H258.75H255.688H252.625V42.5625V39.5H255.688H258.75H261.812H264.875H267.938V42.5625V45.625ZM252.625 39.5H249.562H246.5V36.4375V33.375H249.562H252.625V36.4375V39.5ZM271 33.375H267.938H264.875H261.812H258.75H255.688H252.625V30.3125V27.25H255.688H258.75H261.812H264.875H267.938H271H274.062V30.3125V33.375H271ZM316.938 64H313.875V60.9375V57.875V54.8125V51.75V48.6875V45.625H310.812H307.75H304.688H301.625H298.562V48.6875V51.75V54.8125V57.875V60.9375V64H295.5H292.438V60.9375V57.875V54.8125V51.75V48.6875V45.625V42.5625V39.5V36.4375V33.375H295.5H298.562V36.4375V39.5H301.625H304.688H307.75H310.812H313.875V36.4375V33.375H316.938H320V36.4375V39.5V42.5625V45.625V48.6875V51.75V54.8125V57.875V60.9375V64H316.938ZM313.875 33.375H310.812H307.75H304.688H301.625H298.562V30.3125V27.25H301.625H304.688H307.75H310.812H313.875V30.3125V33.375ZM362.875 64H359.812H356.75H353.688H350.625H347.562H344.5H341.438H338.375V60.9375V57.875V54.8125V51.75V48.6875V45.625V42.5625V39.5V36.4375V33.375V30.3125V27.25H341.438H344.5V30.3125V33.375V36.4375V39.5V42.5625V45.625V48.6875V51.75V54.8125V57.875H347.562H350.625H353.688H356.75H359.812H362.875H365.938V60.9375V64H362.875ZM393.5 64H390.438V60.9375V57.875V54.8125V51.75V48.6875V45.625H387.375H384.312H381.25H378.188H375.125V48.6875V51.75V54.8125V57.875V60.9375V64H372.062H369V60.9375V57.875V54.8125V51.75V48.6875V45.625V42.5625V39.5V36.4375V33.375H372.062H375.125V36.4375V39.5H378.188H381.25H384.312H387.375H390.438V36.4375V33.375H393.5H396.562V36.4375V39.5V42.5625V45.625V48.6875V51.75V54.8125V57.875V60.9375V64H393.5ZM390.438 33.375H387.375H384.312H381.25H378.188H375.125V30.3125V27.25H378.188H381.25H384.312H387.375H390.438V30.3125V33.375ZM442.5 64H439.438V60.9375V57.875V54.8125V51.75V48.6875H436.375H433.312V45.625V42.5625H436.375H439.438V39.5V36.4375V33.375V30.3125V27.25H442.5H445.562V30.3125V33.375V36.4375V39.5V42.5625V45.625V48.6875V51.75V54.8125V57.875V60.9375V64H442.5ZM418 64H414.938V60.9375V57.875V54.8125V51.75V48.6875V45.625V42.5625V39.5V36.4375V33.375V30.3125V27.25H418H421.062V30.3125H424.125H427.188V33.375V36.4375H430.25H433.312V39.5V42.5625H430.25H427.188V39.5V36.4375H424.125H421.062V39.5V42.5625V45.625V48.6875V51.75V54.8125V57.875V60.9375V64H418ZM473.125 64H470.062V60.9375V57.875V54.8125V51.75V48.6875V45.625H467H463.938H460.875H457.812H454.75V48.6875V51.75V54.8125V57.875V60.9375V64H451.688H448.625V60.9375V57.875V54.8125V51.75V48.6875V45.625V42.5625V39.5V36.4375V33.375H451.688H454.75V36.4375V39.5H457.812H460.875H463.938H467H470.062V36.4375V33.375H473.125H476.188V36.4375V39.5V42.5625V45.625V48.6875V51.75V54.8125V57.875V60.9375V64H473.125ZM470.062 33.375H467H463.938H460.875H457.812H454.75V30.3125V27.25H457.812H460.875H463.938H467H470.062V30.3125V33.375ZM494.562 64H491.5V60.9375V57.875V54.8125V51.75H494.562H497.625V54.8125V57.875V60.9375V64H494.562ZM497.625 51.75V48.6875V45.625V42.5625H500.688H503.75V45.625V48.6875V51.75H500.688H497.625ZM491.5 51.75H488.438H485.375V48.6875V45.625V42.5625H488.438H491.5V45.625V48.6875V51.75ZM503.75 42.5625V39.5V36.4375V33.375V30.3125V27.25H506.812H509.875V30.3125V33.375V36.4375V39.5V42.5625H506.812H503.75ZM485.375 42.5625H482.312H479.25V39.5V36.4375V33.375V30.3125V27.25H482.312H485.375V30.3125V33.375V36.4375V39.5V42.5625ZM540.5 64H537.438H534.375H531.312H528.25H525.188H522.125H519.062H516H512.938V60.9375V57.875V54.8125V51.75V48.6875V45.625V42.5625V39.5V36.4375V33.375V30.3125V27.25H516H519.062H522.125H525.188H528.25H531.312H534.375H537.438H540.5H543.562V30.3125V33.375H540.5H537.438H534.375H531.312H528.25H525.188H522.125H519.062V36.4375V39.5H522.125H525.188H528.25V42.5625V45.625H525.188H522.125H519.062V48.6875V51.75V54.8125V57.875H522.125H525.188H528.25H531.312H534.375H537.438H540.5H543.562V60.9375V64H540.5ZM555.812 64H552.75V60.9375V57.875H555.812H558.875V60.9375V64H555.812ZM555.812 54.8125H552.75V51.75V48.6875H555.812H558.875V51.75V54.8125H555.812ZM558.875 48.6875V45.625V42.5625H561.938H565V45.625V48.6875H561.938H558.875ZM565 42.5625V39.5V36.4375V33.375H568.062H571.125V36.4375V39.5V42.5625H568.062H565ZM549.688 39.5H546.625V36.4375V33.375H549.688H552.75V36.4375V39.5H549.688ZM565 33.375H561.938H558.875H555.812H552.75V30.3125V27.25H555.812H558.875H561.938H565V30.3125V33.375Z" fill="#FFD0DC"/>
</g>
<mask id="mask0_929_596" style="mask-type:alpha" maskUnits="userSpaceOnUse" x="99" y="0" width="496" height="52">
<rect x="99" width="496" height="51.9558" fill="white"/>
</mask>
<g mask="url(#mask0_929_596)">
<path d="M133.188 64H130.125H127.062H124H120.938H117.875H114.812V60.9375V57.875H117.875H120.938H124H127.062H130.125H133.188H136.25V60.9375V64H133.188ZM136.25 57.875V54.8125V51.75V48.6875V45.625H139.312H142.375V48.6875V51.75V54.8125V57.875H139.312H136.25ZM136.25 45.625H133.188H130.125H127.062H124H120.938V42.5625V39.5H124H127.062H130.125H133.188H136.25V42.5625V45.625ZM120.938 39.5H117.875H114.812V36.4375V33.375H117.875H120.938V36.4375V39.5ZM139.312 33.375H136.25H133.188H130.125H127.062H124H120.938V30.3125V27.25H124H127.062H130.125H133.188H136.25H139.312H142.375V30.3125V33.375H139.312ZM166.875 64H163.812H160.75H157.688H154.625V60.9375V57.875H157.688H160.75H163.812H166.875H169.938V60.9375V64H166.875ZM169.938 57.875V54.8125V51.75V48.6875V45.625V42.5625V39.5V36.4375V33.375V30.3125V27.25H173H176.062V30.3125V33.375V36.4375V39.5V42.5625V45.625V48.6875V51.75V54.8125V57.875H173H169.938ZM154.625 57.875H151.562H148.5V54.8125V51.75V48.6875V45.625V42.5625V39.5V36.4375V33.375V30.3125V27.25H151.562H154.625V30.3125V33.375V36.4375V39.5V42.5625V45.625V48.6875V51.75V54.8125V57.875ZM200.562 64H197.5H194.438H191.375H188.312H185.25H182.188H179.125V60.9375V57.875V54.8125V51.75V48.6875V45.625V42.5625V39.5V36.4375V33.375V30.3125V27.25H182.188H185.25H188.312H191.375H194.438H197.5H200.562H203.625V30.3125V33.375H206.688H209.75V36.4375V39.5V42.5625H206.688H203.625V39.5V36.4375V33.375H200.562H197.5H194.438H191.375H188.312H185.25V36.4375V39.5V42.5625H188.312H191.375H194.438H197.5H200.562H203.625V45.625V48.6875H206.688H209.75V51.75V54.8125V57.875H206.688H203.625V54.8125V51.75V48.6875H200.562H197.5H194.438H191.375H188.312H185.25V51.75V54.8125V57.875H188.312H191.375H194.438H197.5H200.562H203.625V60.9375V64H200.562ZM240.375 64H237.312H234.25H231.188H228.125H225.062H222H218.938H215.875H212.812V60.9375V57.875V54.8125V51.75V48.6875V45.625V42.5625V39.5V36.4375V33.375V30.3125V27.25H215.875H218.938H222H225.062H228.125H231.188H234.25H237.312H240.375H243.438V30.3125V33.375H240.375H237.312H234.25H231.188H228.125H225.062H222H218.938V36.4375V39.5H222H225.062H228.125V42.5625V45.625H225.062H222H218.938V48.6875V51.75V54.8125V57.875H222H225.062H228.125H231.188H234.25H237.312H240.375H243.438V60.9375V64H240.375ZM264.875 64H261.812H258.75H255.688H252.625H249.562H246.5V60.9375V57.875H249.562H252.625H255.688H258.75H261.812H264.875H267.938V60.9375V64H264.875ZM267.938 57.875V54.8125V51.75V48.6875V45.625H271H274.062V48.6875V51.75V54.8125V57.875H271H267.938ZM267.938 45.625H264.875H261.812H258.75H255.688H252.625V42.5625V39.5H255.688H258.75H261.812H264.875H267.938V42.5625V45.625ZM252.625 39.5H249.562H246.5V36.4375V33.375H249.562H252.625V36.4375V39.5ZM271 33.375H267.938H264.875H261.812H258.75H255.688H252.625V30.3125V27.25H255.688H258.75H261.812H264.875H267.938H271H274.062V30.3125V33.375H271ZM316.938 64H313.875V60.9375V57.875V54.8125V51.75V48.6875V45.625H310.812H307.75H304.688H301.625H298.562V48.6875V51.75V54.8125V57.875V60.9375V64H295.5H292.438V60.9375V57.875V54.8125V51.75V48.6875V45.625V42.5625V39.5V36.4375V33.375H295.5H298.562V36.4375V39.5H301.625H304.688H307.75H310.812H313.875V36.4375V33.375H316.938H320V36.4375V39.5V42.5625V45.625V48.6875V51.75V54.8125V57.875V60.9375V64H316.938ZM313.875 33.375H310.812H307.75H304.688H301.625H298.562V30.3125V27.25H301.625H304.688H307.75H310.812H313.875V30.3125V33.375ZM362.875 64H359.812H356.75H353.688H350.625H347.562H344.5H341.438H338.375V60.9375V57.875V54.8125V51.75V48.6875V45.625V42.5625V39.5V36.4375V33.375V30.3125V27.25H341.438H344.5V30.3125V33.375V36.4375V39.5V42.5625V45.625V48.6875V51.75V54.8125V57.875H347.562H350.625H353.688H356.75H359.812H362.875H365.938V60.9375V64H362.875ZM393.5 64H390.438V60.9375V57.875V54.8125V51.75V48.6875V45.625H387.375H384.312H381.25H378.188H375.125V48.6875V51.75V54.8125V57.875V60.9375V64H372.062H369V60.9375V57.875V54.8125V51.75V48.6875V45.625V42.5625V39.5V36.4375V33.375H372.062H375.125V36.4375V39.5H378.188H381.25H384.312H387.375H390.438V36.4375V33.375H393.5H396.562V36.4375V39.5V42.5625V45.625V48.6875V51.75V54.8125V57.875V60.9375V64H393.5ZM390.438 33.375H387.375H384.312H381.25H378.188H375.125V30.3125V27.25H378.188H381.25H384.312H387.375H390.438V30.3125V33.375ZM442.5 64H439.438V60.9375V57.875V54.8125V51.75V48.6875H436.375H433.312V45.625V42.5625H436.375H439.438V39.5V36.4375V33.375V30.3125V27.25H442.5H445.562V30.3125V33.375V36.4375V39.5V42.5625V45.625V48.6875V51.75V54.8125V57.875V60.9375V64H442.5ZM418 64H414.938V60.9375V57.875V54.8125V51.75V48.6875V45.625V42.5625V39.5V36.4375V33.375V30.3125V27.25H418H421.062V30.3125H424.125H427.188V33.375V36.4375H430.25H433.312V39.5V42.5625H430.25H427.188V39.5V36.4375H424.125H421.062V39.5V42.5625V45.625V48.6875V51.75V54.8125V57.875V60.9375V64H418ZM473.125 64H470.062V60.9375V57.875V54.8125V51.75V48.6875V45.625H467H463.938H460.875H457.812H454.75V48.6875V51.75V54.8125V57.875V60.9375V64H451.688H448.625V60.9375V57.875V54.8125V51.75V48.6875V45.625V42.5625V39.5V36.4375V33.375H451.688H454.75V36.4375V39.5H457.812H460.875H463.938H467H470.062V36.4375V33.375H473.125H476.188V36.4375V39.5V42.5625V45.625V48.6875V51.75V54.8125V57.875V60.9375V64H473.125ZM470.062 33.375H467H463.938H460.875H457.812H454.75V30.3125V27.25H457.812H460.875H463.938H467H470.062V30.3125V33.375ZM494.562 64H491.5V60.9375V57.875V54.8125V51.75H494.562H497.625V54.8125V57.875V60.9375V64H494.562ZM497.625 51.75V48.6875V45.625V42.5625H500.688H503.75V45.625V48.6875V51.75H500.688H497.625ZM491.5 51.75H488.438H485.375V48.6875V45.625V42.5625H488.438H491.5V45.625V48.6875V51.75ZM503.75 42.5625V39.5V36.4375V33.375V30.3125V27.25H506.812H509.875V30.3125V33.375V36.4375V39.5V42.5625H506.812H503.75ZM485.375 42.5625H482.312H479.25V39.5V36.4375V33.375V30.3125V27.25H482.312H485.375V30.3125V33.375V36.4375V39.5V42.5625ZM540.5 64H537.438H534.375H531.312H528.25H525.188H522.125H519.062H516H512.938V60.9375V57.875V54.8125V51.75V48.6875V45.625V42.5625V39.5V36.4375V33.375V30.3125V27.25H516H519.062H522.125H525.188H528.25H531.312H534.375H537.438H540.5H543.562V30.3125V33.375H540.5H537.438H534.375H531.312H528.25H525.188H522.125H519.062V36.4375V39.5H522.125H525.188H528.25V42.5625V45.625H525.188H522.125H519.062V48.6875V51.75V54.8125V57.875H522.125H525.188H528.25H531.312H534.375H537.438H540.5H543.562V60.9375V64H540.5ZM555.812 64H552.75V60.9375V57.875H555.812H558.875V60.9375V64H555.812ZM555.812 54.8125H552.75V51.75V48.6875H555.812H558.875V51.75V54.8125H555.812ZM558.875 48.6875V45.625V42.5625H561.938H565V45.625V48.6875H561.938H558.875ZM565 42.5625V39.5V36.4375V33.375H568.062H571.125V36.4375V39.5V42.5625H568.062H565ZM549.688 39.5H546.625V36.4375V33.375H549.688H552.75V36.4375V39.5H549.688ZM565 33.375H561.938H558.875H555.812H552.75V30.3125V27.25H555.812H558.875H561.938H565V30.3125V33.375Z" fill="white"/>
</g>
<path d="M0 42L31 0V42H0Z" fill="#753BBD"/>
<path d="M0 42L31 0V42H0Z" fill="#282729" fill-opacity="0.54"/>
<defs>
<filter id="filter0_d_929_596" x="23" y="0" width="636" height="374" filterUnits="userSpaceOnUse" color-interpolation-filters="sRGB">
<feFlood flood-opacity="0" result="BackgroundImageFix"/>
<feColorMatrix in="SourceAlpha" type="matrix" values="0 0 0 0 0 0 0 0 0 0 0 0 0 0 0 0 0 0 127 0" result="hardAlpha"/>
<feOffset dx="-8" dy="11"/>
<feComposite in2="hardAlpha" operator="out"/>
<feColorMatrix type="matrix" values="0 0 0 0 0 0 0 0 0 0 0 0 0 0 0 0 0 0 0.25 0"/>
<feBlend mode="normal" in2="BackgroundImageFix" result="effect1_dropShadow_929_596"/>
<feBlend mode="normal" in="SourceGraphic" in2="effect1_dropShadow_929_596" result="shape"/>
</filter>
<filter id="filter1_d_929_596" x="91.5" y="105.5" width="506" height="216" filterUnits="userSpaceOnUse" color-interpolation-filters="sRGB">
<feFlood flood-opacity="0" result="BackgroundImageFix"/>
<feColorMatrix in="SourceAlpha" type="matrix" values="0 0 0 0 0 0 0 0 0 0 0 0 0 0 0 0 0 0 127 0" result="hardAlpha"/>
<feOffset/>
<feGaussianBlur stdDeviation="2.5"/>
<feComposite in2="hardAlpha" operator="out"/>
<feColorMatrix type="matrix" values="0 0 0 0 1 0 0 0 0 0.32549 0 0 0 0 0 0 0 0 0.5 0"/>
<feBlend mode="normal" in2="BackgroundImageFix" result="effect1_dropShadow_929_596"/>
<feBlend mode="normal" in="SourceGraphic" in2="effect1_dropShadow_929_596" result="shape"/>
</filter>
<filter id="filter2_d_929_596" x="114.812" y="27.25" width="458.312" height="40.75" filterUnits="userSpaceOnUse" color-interpolation-filters="sRGB">
<feFlood flood-opacity="0" result="BackgroundImageFix"/>
<feColorMatrix in="SourceAlpha" type="matrix" values="0 0 0 0 0 0 0 0 0 0 0 0 0 0 0 0 0 0 127 0" result="hardAlpha"/>
<feOffset dx="2" dy="4"/>
<feComposite in2="hardAlpha" operator="out"/>
<feColorMatrix type="matrix" values="0 0 0 0 0.458824 0 0 0 0 0.231373 0 0 0 0 0.741176 0 0 0 1 0"/>
<feBlend mode="normal" in2="BackgroundImageFix" result="effect1_dropShadow_929_596"/>
<feBlend mode="normal" in="SourceGraphic" in2="effect1_dropShadow_929_596" result="shape"/>
</filter>
</defs>
</svg>
