<svg width="96" height="69" viewBox="0 0 96 69" fill="none" xmlns="http://www.w3.org/2000/svg">
<path d="M0 21L14 0V21H0Z" fill="#753BBD"/>
<path d="M0 21L14 0V21H0Z" fill="#282729" fill-opacity="0.55"/>
<g style="mix-blend-mode:multiply">
<rect x="10" y="21" width="85" height="48" fill="black" fill-opacity="0.2"/>
</g>
<path d="M10 21L14 0L21.5 21H10Z" fill="#4B306C"/>
<rect x="14" width="82" height="64" fill="url(#paint0_linear_1063_1050)"/>
<g clip-path="url(#clip0_1063_1050)">
<g filter="url(#filter0_d_1063_1050)">
<path fill-rule="evenodd" clip-rule="evenodd" d="M46.625 46.9375C46.625 46.5231 46.7896 46.1257 47.0826 45.8326C47.3757 45.5396 47.7731 45.375 48.1875 45.375H76.3125C76.7269 45.375 77.1243 45.5396 77.4174 45.8326C77.7104 46.1257 77.875 46.5231 77.875 46.9375C77.875 47.3519 77.7104 47.7493 77.4174 48.0424C77.1243 48.3354 76.7269 48.5 76.3125 48.5H48.1875C47.7731 48.5 47.3757 48.3354 47.0826 48.0424C46.7896 47.7493 46.625 47.3519 46.625 46.9375ZM46.625 34.4375C46.625 34.0231 46.7896 33.6257 47.0826 33.3326C47.3757 33.0396 47.7731 32.875 48.1875 32.875H76.3125C76.7269 32.875 77.1243 33.0396 77.4174 33.3326C77.7104 33.6257 77.875 34.0231 77.875 34.4375C77.875 34.8519 77.7104 35.2493 77.4174 35.5424C77.1243 35.8354 76.7269 36 76.3125 36H48.1875C47.7731 36 47.3757 35.8354 47.0826 35.5424C46.7896 35.2493 46.625 34.8519 46.625 34.4375ZM46.625 21.9375C46.625 21.5231 46.7896 21.1257 47.0826 20.8326C47.3757 20.5396 47.7731 20.375 48.1875 20.375H76.3125C76.7269 20.375 77.1243 20.5396 77.4174 20.8326C77.7104 21.1257 77.875 21.5231 77.875 21.9375C77.875 22.3519 77.7104 22.7493 77.4174 23.0424C77.1243 23.3354 76.7269 23.5 76.3125 23.5H48.1875C47.7731 23.5 47.3757 23.3354 47.0826 23.0424C46.7896 22.7493 46.625 22.3519 46.625 21.9375ZM37.25 25.0625C38.0788 25.0625 38.8737 24.7333 39.4597 24.1472C40.0458 23.5612 40.375 22.7663 40.375 21.9375C40.375 21.1087 40.0458 20.3138 39.4597 19.7278C38.8737 19.1417 38.0788 18.8125 37.25 18.8125C36.4212 18.8125 35.6263 19.1417 35.0403 19.7278C34.4542 20.3138 34.125 21.1087 34.125 21.9375C34.125 22.7663 34.4542 23.5612 35.0403 24.1472C35.6263 24.7333 36.4212 25.0625 37.25 25.0625V25.0625ZM37.25 37.5625C38.0788 37.5625 38.8737 37.2333 39.4597 36.6472C40.0458 36.0612 40.375 35.2663 40.375 34.4375C40.375 33.6087 40.0458 32.8138 39.4597 32.2278C38.8737 31.6417 38.0788 31.3125 37.25 31.3125C36.4212 31.3125 35.6263 31.6417 35.0403 32.2278C34.4542 32.8138 34.125 33.6087 34.125 34.4375C34.125 35.2663 34.4542 36.0612 35.0403 36.6472C35.6263 37.2333 36.4212 37.5625 37.25 37.5625V37.5625ZM37.25 50.0625C38.0788 50.0625 38.8737 49.7333 39.4597 49.1472C40.0458 48.5612 40.375 47.7663 40.375 46.9375C40.375 46.1087 40.0458 45.3138 39.4597 44.7278C38.8737 44.1417 38.0788 43.8125 37.25 43.8125C36.4212 43.8125 35.6263 44.1417 35.0403 44.7278C34.4542 45.3138 34.125 46.1087 34.125 46.9375C34.125 47.7663 34.4542 48.5612 35.0403 49.1472C35.6263 49.7333 36.4212 50.0625 37.25 50.0625V50.0625Z" fill="#FF5300"/>
</g>
</g>
<defs>
<filter id="filter0_d_1063_1050" x="26.125" y="10.8125" width="59.75" height="47.25" filterUnits="userSpaceOnUse" color-interpolation-filters="sRGB">
<feFlood flood-opacity="0" result="BackgroundImageFix"/>
<feColorMatrix in="SourceAlpha" type="matrix" values="0 0 0 0 0 0 0 0 0 0 0 0 0 0 0 0 0 0 127 0" result="hardAlpha"/>
<feOffset/>
<feGaussianBlur stdDeviation="4"/>
<feComposite in2="hardAlpha" operator="out"/>
<feColorMatrix type="matrix" values="0 0 0 0 1 0 0 0 0 0.32549 0 0 0 0 0 0 0 0 0.5 0"/>
<feBlend mode="normal" in2="BackgroundImageFix" result="effect1_dropShadow_1063_1050"/>
<feBlend mode="normal" in="SourceGraphic" in2="effect1_dropShadow_1063_1050" result="shape"/>
</filter>
<linearGradient id="paint0_linear_1063_1050" x1="11.029" y1="50.8718" x2="93.1111" y2="6.91335" gradientUnits="userSpaceOnUse">
<stop stop-color="#6564BB"/>
<stop offset="1" stop-color="#9155B2"/>
</linearGradient>
<clipPath id="clip0_1063_1050">
<rect width="50" height="50" fill="white" transform="translate(31 11)"/>
</clipPath>
</defs>
</svg>
