<svg width="96" height="69" viewBox="0 0 96 69" fill="none" xmlns="http://www.w3.org/2000/svg">
<path d="M0 21L14 0V21H0Z" fill="#753BBD"/>
<path d="M0 21L14 0V21H0Z" fill="#282729" fill-opacity="0.55"/>
<g style="mix-blend-mode:multiply">
<rect x="10" y="21" width="85" height="48" fill="black" fill-opacity="0.2"/>
</g>
<path d="M10 21L14 0L21.5 21H10Z" fill="#4B306C"/>
<rect x="14" width="82" height="64" fill="url(#paint0_linear_1063_991)"/>
<g filter="url(#filter0_d_1063_991)">
<path d="M54.1333 18.0714C54.1333 17.7115 54.2773 17.3663 54.5336 17.1118C54.7899 16.8573 55.1375 16.7143 55.5 16.7143H74.6333C74.9958 16.7143 75.3434 16.8573 75.5997 17.1118C75.856 17.3663 76 17.7115 76 18.0714V20.7857C76 21.1457 75.856 21.4908 75.5997 21.7454C75.3434 21.9999 74.9958 22.1429 74.6333 22.1429H55.5C55.1375 22.1429 54.7899 21.9999 54.5336 21.7454C54.2773 21.4908 54.1333 21.1457 54.1333 20.7857V18.0714ZM40.4667 14C39.0168 14 37.6263 14.5719 36.6011 15.59C35.576 16.608 35 17.9888 35 19.4286V24.8571C35 26.2969 35.576 27.6777 36.6011 28.6957C37.6263 29.7138 39.0168 30.2857 40.4667 30.2857H45.9333C47.3832 30.2857 48.7737 29.7138 49.7989 28.6957C50.824 27.6777 51.4 26.2969 51.4 24.8571V19.4286C51.4 17.9888 50.824 16.608 49.7989 15.59C48.7737 14.5719 47.3832 14 45.9333 14H40.4667ZM40.4667 35.7143C39.0168 35.7143 37.6263 36.2862 36.6011 37.3043C35.576 38.3223 35 39.7031 35 41.1429V46.5714C35 48.0112 35.576 49.392 36.6011 50.41C37.6263 51.4281 39.0168 52 40.4667 52H45.9333C47.3832 52 48.7737 51.4281 49.7989 50.41C50.824 49.392 51.4 48.0112 51.4 46.5714V41.1429C51.4 39.7031 50.824 38.3223 49.7989 37.3043C48.7737 36.2862 47.3832 35.7143 45.9333 35.7143H40.4667ZM42.8009 25.818C42.674 25.9444 42.5232 26.0447 42.3571 26.1131C42.1911 26.1815 42.0131 26.2167 41.8333 26.2167C41.6536 26.2167 41.4756 26.1815 41.3095 26.1131C41.1435 26.0447 40.9927 25.9444 40.8657 25.818L38.1324 23.1037C38.0053 22.9775 37.9045 22.8277 37.8358 22.6629C37.767 22.498 37.7316 22.3213 37.7316 22.1429C37.7316 21.9644 37.767 21.7877 37.8358 21.6228C37.9045 21.458 38.0053 21.3082 38.1324 21.182C38.2595 21.0558 38.4103 20.9557 38.5763 20.8874C38.7424 20.8191 38.9203 20.784 39.1 20.784C39.2797 20.784 39.4576 20.8191 39.6237 20.8874C39.7897 20.9557 39.9405 21.0558 40.0676 21.182L41.8333 22.9381L46.3324 18.4677C46.4595 18.3415 46.6103 18.2414 46.7763 18.1732C46.9424 18.1049 47.1203 18.0697 47.3 18.0697C47.4797 18.0697 47.6576 18.1049 47.8237 18.1732C47.9897 18.2414 48.1405 18.3415 48.2676 18.4677C48.3947 18.5939 48.4955 18.7437 48.5642 18.9086C48.633 19.0734 48.6684 19.2501 48.6684 19.4286C48.6684 19.607 48.633 19.7837 48.5642 19.9486C48.4955 20.1134 48.3947 20.2632 48.2676 20.3894L42.8009 25.818ZM42.8009 47.5323C42.674 47.6587 42.5232 47.7589 42.3571 47.8274C42.1911 47.8958 42.0131 47.931 41.8333 47.931C41.6536 47.931 41.4756 47.8958 41.3095 47.8274C41.1435 47.7589 40.9927 47.6587 40.8657 47.5323L38.1324 44.818C37.8758 44.5632 37.7316 44.2175 37.7316 43.8571C37.7316 43.4968 37.8758 43.1511 38.1324 42.8963C38.389 42.6414 38.7371 42.4983 39.1 42.4983C39.4629 42.4983 39.811 42.6414 40.0676 42.8963L41.8333 44.6524L46.3324 40.182C46.589 39.9272 46.9371 39.784 47.3 39.784C47.6629 39.784 48.011 39.9272 48.2676 40.182C48.5242 40.4368 48.6684 40.7825 48.6684 41.1429C48.6684 41.5032 48.5242 41.8489 48.2676 42.1037L42.8009 47.5323ZM54.1333 39.7857C54.1333 39.4258 54.2773 39.0806 54.5336 38.8261C54.7899 38.5716 55.1375 38.4286 55.5 38.4286H74.6333C74.9958 38.4286 75.3434 38.5716 75.5997 38.8261C75.856 39.0806 76 39.4258 76 39.7857V42.5C76 42.8599 75.856 43.2051 75.5997 43.4596C75.3434 43.7142 74.9958 43.8571 74.6333 43.8571H55.5C55.1375 43.8571 54.7899 43.7142 54.5336 43.4596C54.2773 43.2051 54.1333 42.8599 54.1333 42.5V39.7857ZM54.1333 26.2143C54.1333 25.8543 54.2773 25.5092 54.5336 25.2546C54.7899 25.0001 55.1375 24.8571 55.5 24.8571H69.1667C69.5291 24.8571 69.8767 25.0001 70.133 25.2546C70.3893 25.5092 70.5333 25.8543 70.5333 26.2143C70.5333 26.5742 70.3893 26.9194 70.133 27.1739C69.8767 27.4284 69.5291 27.5714 69.1667 27.5714H55.5C55.1375 27.5714 54.7899 27.4284 54.5336 27.1739C54.2773 26.9194 54.1333 26.5742 54.1333 26.2143ZM54.1333 47.9286C54.1333 47.5686 54.2773 47.2234 54.5336 46.9689C54.7899 46.7144 55.1375 46.5714 55.5 46.5714H69.1667C69.5291 46.5714 69.8767 46.7144 70.133 46.9689C70.3893 47.2234 70.5333 47.5686 70.5333 47.9286C70.5333 48.2885 70.3893 48.6337 70.133 48.8882C69.8767 49.1427 69.5291 49.2857 69.1667 49.2857H55.5C55.1375 49.2857 54.7899 49.1427 54.5336 48.8882C54.2773 48.6337 54.1333 48.2885 54.1333 47.9286Z" fill="#FF5300"/>
</g>
<defs>
<filter id="filter0_d_1063_991" x="27" y="6" width="57" height="54" filterUnits="userSpaceOnUse" color-interpolation-filters="sRGB">
<feFlood flood-opacity="0" result="BackgroundImageFix"/>
<feColorMatrix in="SourceAlpha" type="matrix" values="0 0 0 0 0 0 0 0 0 0 0 0 0 0 0 0 0 0 127 0" result="hardAlpha"/>
<feOffset/>
<feGaussianBlur stdDeviation="4"/>
<feComposite in2="hardAlpha" operator="out"/>
<feColorMatrix type="matrix" values="0 0 0 0 1 0 0 0 0 0.32549 0 0 0 0 0 0 0 0 0.5 0"/>
<feBlend mode="normal" in2="BackgroundImageFix" result="effect1_dropShadow_1063_991"/>
<feBlend mode="normal" in="SourceGraphic" in2="effect1_dropShadow_1063_991" result="shape"/>
</filter>
<linearGradient id="paint0_linear_1063_991" x1="11.029" y1="50.8718" x2="93.1111" y2="6.91335" gradientUnits="userSpaceOnUse">
<stop stop-color="#6564BB"/>
<stop offset="1" stop-color="#9155B2"/>
</linearGradient>
</defs>
</svg>
