<svg width="96" height="69" viewBox="0 0 96 69" fill="none" xmlns="http://www.w3.org/2000/svg">
<path d="M0 21L14 0V21H0Z" fill="#753BBD"/>
<path d="M0 21L14 0V21H0Z" fill="#282729" fill-opacity="0.55"/>
<g style="mix-blend-mode:multiply">
<rect x="10" y="21" width="85" height="48" fill="black" fill-opacity="0.2"/>
</g>
<path d="M10 21L14 0L21.5 21H10Z" fill="#4B306C"/>
<rect x="14" width="82" height="64" fill="url(#paint0_linear_1063_1001)"/>
<g filter="url(#filter0_d_1063_1001)">
<path d="M69.9375 13H45.1875C43.5465 13 41.9727 13.6497 40.8123 14.8062C39.6519 15.9626 39 17.5312 39 19.1667V43.8333C39 45.4688 39.6519 47.0374 40.8123 48.1938C41.9727 49.3503 43.5465 50 45.1875 50H69.9375C70.4845 50 71.0091 49.7834 71.3959 49.3979C71.7827 49.0125 72 48.4896 72 47.9444V15.0556C72 14.5104 71.7827 13.9875 71.3959 13.6021C71.0091 13.2166 70.4845 13 69.9375 13V13ZM45.1875 45.8889C44.6405 45.8889 44.1159 45.6723 43.7291 45.2868C43.3423 44.9013 43.125 44.3785 43.125 43.8333C43.125 43.2882 43.3423 42.7653 43.7291 42.3798C44.1159 41.9943 44.6405 41.7778 45.1875 41.7778H67.875V45.8889H45.1875Z" fill="#FF5300"/>
</g>
<defs>
<filter id="filter0_d_1063_1001" x="31" y="5" width="49" height="53" filterUnits="userSpaceOnUse" color-interpolation-filters="sRGB">
<feFlood flood-opacity="0" result="BackgroundImageFix"/>
<feColorMatrix in="SourceAlpha" type="matrix" values="0 0 0 0 0 0 0 0 0 0 0 0 0 0 0 0 0 0 127 0" result="hardAlpha"/>
<feOffset/>
<feGaussianBlur stdDeviation="4"/>
<feComposite in2="hardAlpha" operator="out"/>
<feColorMatrix type="matrix" values="0 0 0 0 1 0 0 0 0 0.32549 0 0 0 0 0 0 0 0 0.5 0"/>
<feBlend mode="normal" in2="BackgroundImageFix" result="effect1_dropShadow_1063_1001"/>
<feBlend mode="normal" in="SourceGraphic" in2="effect1_dropShadow_1063_1001" result="shape"/>
</filter>
<linearGradient id="paint0_linear_1063_1001" x1="11.029" y1="50.8718" x2="93.1111" y2="6.91335" gradientUnits="userSpaceOnUse">
<stop stop-color="#6564BB"/>
<stop offset="1" stop-color="#9155B2"/>
</linearGradient>
</defs>
</svg>
