<svg width="96" height="69" viewBox="0 0 96 69" fill="none" xmlns="http://www.w3.org/2000/svg">
<path d="M0 21L14 0V21H0Z" fill="#753BBD"/>
<path d="M0 21L14 0V21H0Z" fill="#282729" fill-opacity="0.55"/>
<g style="mix-blend-mode:multiply">
<rect x="10" y="21" width="85" height="48" fill="black" fill-opacity="0.2"/>
</g>
<path d="M10 21L14 0L21.5 21H10Z" fill="#4B306C"/>
<rect x="14" width="82" height="64" fill="url(#paint0_linear_1063_982)"/>
<g filter="url(#filter0_d_1063_982)">
<path d="M35 19C35 17.6739 35.5268 16.4021 36.4645 15.4645C37.4021 14.5268 38.6739 14 40 14H70C71.3261 14 72.5979 14.5268 73.5355 15.4645C74.4732 16.4021 75 17.6739 75 19V39C75 40.3261 74.4732 41.5979 73.5355 42.5355C72.5979 43.4732 71.3261 44 70 44H46.035C45.372 44.0001 44.7362 44.2636 44.2675 44.7325L37.135 51.865C36.9603 52.0401 36.7376 52.1595 36.4951 52.208C36.2526 52.2565 36.0011 52.2319 35.7725 52.1374C35.5439 52.043 35.3485 51.8828 35.211 51.6772C35.0735 51.4716 35.0001 51.2298 35 50.9825V19ZM52.985 25.915C52.8202 25.6691 52.63 25.4411 52.4175 25.235C52.0834 24.8909 51.685 24.6157 51.245 24.425L51.225 24.415C50.6329 24.1401 49.9878 23.9984 49.335 24C46.94 24 45 25.865 45 28.1675C45 30.4675 46.94 32.3325 49.335 32.3325C50.1925 32.3325 50.99 32.095 51.6625 31.6825C51.32 32.655 50.6875 33.6925 49.6375 34.7325C49.5386 34.829 49.4605 34.9448 49.408 35.0727C49.3556 35.2005 49.3298 35.3378 49.3324 35.4759C49.335 35.6141 49.3658 35.7503 49.423 35.8761C49.4802 36.0019 49.5626 36.1147 49.665 36.2075C50.0975 36.6075 50.7825 36.595 51.2 36.1825C54.535 32.86 54.625 29.2875 53.5525 26.9175C53.395 26.5672 53.205 26.2324 52.985 25.9175V25.915ZM62.5 31.6825C62.16 32.655 61.525 33.6925 60.475 34.7325C60.3763 34.8292 60.2983 34.9451 60.2461 35.0731C60.1938 35.201 60.1683 35.3383 60.1711 35.4765C60.1739 35.6147 60.205 35.7508 60.2624 35.8765C60.3198 36.0023 60.4024 36.1149 60.505 36.2075C60.935 36.6075 61.62 36.595 62.0375 36.1825C65.3725 32.86 65.4625 29.2875 64.3925 26.9175C64.2341 26.5671 64.0433 26.2323 63.8225 25.9175C63.6579 25.6707 63.4677 25.4419 63.255 25.235C62.9209 24.8909 62.5226 24.6157 62.0825 24.425L62.0625 24.415C61.4712 24.1405 60.8269 23.9988 60.175 24C57.7825 24 55.84 25.865 55.84 28.1675C55.84 30.4675 57.7825 32.3325 60.175 32.3325C61.0325 32.3325 61.83 32.095 62.5025 31.6825H62.5Z" fill="#FF5300"/>
</g>
<defs>
<filter id="filter0_d_1063_982" x="27" y="6" width="56" height="54.2324" filterUnits="userSpaceOnUse" color-interpolation-filters="sRGB">
<feFlood flood-opacity="0" result="BackgroundImageFix"/>
<feColorMatrix in="SourceAlpha" type="matrix" values="0 0 0 0 0 0 0 0 0 0 0 0 0 0 0 0 0 0 127 0" result="hardAlpha"/>
<feOffset/>
<feGaussianBlur stdDeviation="4"/>
<feComposite in2="hardAlpha" operator="out"/>
<feColorMatrix type="matrix" values="0 0 0 0 1 0 0 0 0 0.32549 0 0 0 0 0 0 0 0 0.5 0"/>
<feBlend mode="normal" in2="BackgroundImageFix" result="effect1_dropShadow_1063_982"/>
<feBlend mode="normal" in="SourceGraphic" in2="effect1_dropShadow_1063_982" result="shape"/>
</filter>
<linearGradient id="paint0_linear_1063_982" x1="11.029" y1="50.8718" x2="93.1111" y2="6.91335" gradientUnits="userSpaceOnUse">
<stop stop-color="#6564BB"/>
<stop offset="1" stop-color="#9155B2"/>
</linearGradient>
</defs>
</svg>
