<svg width="96" height="69" viewBox="0 0 96 69" fill="none" xmlns="http://www.w3.org/2000/svg">
<path d="M0 21L14 0V21H0Z" fill="#753BBD"/>
<path d="M0 21L14 0V21H0Z" fill="#282729" fill-opacity="0.55"/>
<g style="mix-blend-mode:multiply">
<rect x="10" y="21" width="85" height="48" fill="black" fill-opacity="0.2"/>
</g>
<path d="M10 21L14 0L21.5 21H10Z" fill="#4B306C"/>
<rect x="14" width="82" height="64" fill="url(#paint0_linear_1063_1020)"/>
<g filter="url(#filter0_d_1063_1020)">
<path d="M55 17.2178C52.5375 15.1003 48.9675 14.7853 45.7175 15.1103C41.9325 15.4928 38.1125 16.7903 35.7325 17.8728C35.5141 17.9721 35.3289 18.1322 35.1991 18.3339C35.0692 18.5356 35.0001 18.7704 35 19.0103V46.5103C35.0001 46.7195 35.0526 46.9253 35.1528 47.1088C35.253 47.2924 35.3977 47.4479 35.5735 47.5611C35.7494 47.6743 35.9509 47.7415 36.1595 47.7567C36.3681 47.7718 36.5771 47.7344 36.7675 47.6478C38.9725 46.6478 42.525 45.4453 45.9675 45.0978C49.49 44.7428 52.4425 45.3153 54.025 47.2903C54.1421 47.4363 54.2905 47.5541 54.4593 47.6351C54.628 47.7161 54.8128 47.7581 55 47.7581C55.1872 47.7581 55.3719 47.7161 55.5407 47.6351C55.7095 47.5541 55.8579 47.4363 55.975 47.2903C57.5575 45.3153 60.51 44.7428 64.03 45.0978C67.475 45.4453 71.03 46.6478 73.2325 47.6478C73.4229 47.7344 73.6319 47.7718 73.8405 47.7567C74.0491 47.7415 74.2506 47.6743 74.4265 47.5611C74.6023 47.4479 74.747 47.2924 74.8472 47.1088C74.9474 46.9253 74.9999 46.7195 75 46.5103V19.0103C74.9999 18.7704 74.9308 18.5356 74.8009 18.3339C74.6711 18.1322 74.4859 17.9721 74.2675 17.8728C71.8875 16.7903 68.0675 15.4928 64.2825 15.1103C61.0325 14.7828 57.4625 15.1003 55 17.2178Z" fill="#FF5300"/>
</g>
<defs>
<filter id="filter0_d_1063_1020" x="27" y="7" width="56" height="48.7598" filterUnits="userSpaceOnUse" color-interpolation-filters="sRGB">
<feFlood flood-opacity="0" result="BackgroundImageFix"/>
<feColorMatrix in="SourceAlpha" type="matrix" values="0 0 0 0 0 0 0 0 0 0 0 0 0 0 0 0 0 0 127 0" result="hardAlpha"/>
<feOffset/>
<feGaussianBlur stdDeviation="4"/>
<feComposite in2="hardAlpha" operator="out"/>
<feColorMatrix type="matrix" values="0 0 0 0 1 0 0 0 0 0.32549 0 0 0 0 0 0 0 0 0.5 0"/>
<feBlend mode="normal" in2="BackgroundImageFix" result="effect1_dropShadow_1063_1020"/>
<feBlend mode="normal" in="SourceGraphic" in2="effect1_dropShadow_1063_1020" result="shape"/>
</filter>
<linearGradient id="paint0_linear_1063_1020" x1="11.029" y1="50.8718" x2="93.1111" y2="6.91335" gradientUnits="userSpaceOnUse">
<stop stop-color="#6564BB"/>
<stop offset="1" stop-color="#9155B2"/>
</linearGradient>
</defs>
</svg>
